DataType=double
version=3
OpenSimVersion=4.5.2-2025-05-03-6a4c6ec41
endheader
time	q	q_dot	q_ddot	torque
5.009999999999938	-0.002223772355547998	-0.002486497050018958	1.221640937159146	3
5.019999999999937	-0.002187557591274103	0.009727975389691907	1.220756228120506	3
5.029999999999937	-0.002029292056261118	0.02191868769526591	1.216889877438147	3
5.039999999999937	-0.001749362306890135	0.0340558645930763	1.210051325702951	3
5.049999999999937	-0.001348452059150095	0.04610986153227039	1.200257271760613	3
5.059999999999937	-0.0008275405190802719	0.0580512370853244	1.187531633470735	3
5.069999999999936	-0.0001878999914532757	0.06985082487100118	1.171905491437347	3
5.079999999999936	0.0005689072276749952	0.0814798048297327	1.153417015776027	3
5.089999999999936	0.001441032667225911	0.09290977368221189	1.132111376005249	3
5.099999999999936	0.00242634619715924	0.1041128144029767	1.108040634174396	3
5.109999999999935	0.003522441233648817	0.115061564542027	1.08126362136793	3
5.119999999999935	0.00472664062102457	0.1257292832290566	1.051845797755277	3
5.129999999999935	0.006036003176487593	0.1360899166967428	1.019859096388898	3
5.139999999999935	0.007447330881980049	0.1461181621617349	0.9853817509891983	3
5.149999999999935	0.008957176705990709	0.155789529904568	0.9484981079942351	3
5.159999999999934	0.01056185303650378	0.1650804033927138	0.9092984231946624	3
5.169999999999934	0.01225744070475752	0.1739680972944123	0.8678786433198139	3
5.179999999999934	0.01403979857797481	0.182430913234825	0.8243401729890113	3
5.189999999999934	0.01590457369776451	0.1904481931504407	0.7787896274927777	3
5.199999999999934	0.01784721193947617	0.1980003701025773	0.7313385719211799	3
5.209999999999933	0.0198629691664257	0.2050690164162591	0.6821032472105124	3
5.219999999999933	0.02194692285160171	0.211636889016738	0.6312042837343784	3
5.229999999999933	0.02409398413821758	0.2176879718424635	0.5787664031202883	3
5.239999999999933	0.02629891030929673	0.2232075152203884	0.5249181090274697	3
5.249999999999932	0.02855631763537577	0.2281820720971257	0.4697913676749483	3
5.259999999999932	0.0308606945683851	0.2325995310276173	0.4135212789603787	3
5.269999999999932	0.03320641524882637	0.2364491458316323	0.3562457390588174	3
5.279999999999932	0.0355877532925144	0.2397215618375266	0.2981050954359177	3
5.289999999999932	0.03799889582239318	0.2424088386422574	0.2392417952511691	3
5.299999999999931	0.04043395771027441	0.2445044693265822	0.1798000281631638	3
5.309999999999931	0.04288699599278813	0.2460033960746551	0.1199253645798425	3
5.319999999999931	0.04535202442537911	0.2469020221577921	0.05976439042171538	3
5.329999999999931	0.04782302813783457	0.2471982202529545	-0.0005356605152403355	3
5.339999999999931	0.05029397835458849	0.2468913370774353	-0.06082727549830869	3
5.34999999999993	0.05275884714291811	0.2459821943322485	-0.1209630319946207	3
5.35999999999993	0.05521162215212777	0.244473085957757	-0.1807959659038368	3
5.36999999999993	0.05764632130690635	0.242367771716051	-0.2401799377942479	3
5.37999999999993	0.06005700741824335	0.2396714671254436	-0.2989699960656788	3
5.38999999999993	0.0624378026755962	0.2363908297831049	-0.3570227359854365	3
5.399999999999929	0.06478290298441394	0.2325339421222535	-0.4141966535728324	3
5.409999999999929	0.06708659211363667	0.2281102906603984	-0.470352493343139	3
5.419999999999929	0.06934325561840467	0.2231307418048128	-0.5253535889626825	3
5.429999999999929	0.07154739450391896	0.2176075142906832	-0.5790661959125259	3
5.439999999999928	0.07369363859719419	0.2115541483361521	-0.6313598153081709	3
5.449999999999928	0.07577675959432836	0.2049854716067365	-0.682107508076203	3
5.459999999999928	0.07779168375187817	0.1979175620893145	-0.7311861987450012	3
5.469999999999928	0.07973350419196631	0.1903677079830126	-0.7784769681647573	3
5.479999999999928	0.08159749279185424	0.1823543647208765	-0.8238653345312782	3
5.489999999999927	0.08337911162988251	0.1738971092421694	-0.8672415221475583	3
5.499999999999927	0.08507402396090685	0.1650165916405015	-0.9085007174161039	3
5.509999999999927	0.08667810469563453	0.1557344843177785	-0.9475433116127644	3
5.519999999999927	0.08818745035958679	0.1460734287781664	-0.9842751300485961	3
5.529999999999927	0.08959838850877409	0.1360569801999363	-1.018607647279503	3
5.539999999999926	0.09090748658056561	0.1257095499262038	-1.050458188073417	3
5.549999999999926	0.0921115601596582	0.1150563460182421	-1.079750113891194	3
5.559999999999926	0.09320768064049861	0.1041233120172747	-1.106412994679814	3
5.569999999999926	0.09419318226898077	0.09293706406246825	-1.1303827658146	3
5.579999999999925	0.09506566854772511	0.08152482651431242	-1.151601870060815	3
5.589999999999925	0.09582301799074465	0.0699143662337154	-1.170019384454224	3
5.599999999999925	0.09646338921481031	0.05813392566802424	-1.185591132024863	3
5.609999999999925	0.09698522535634356	0.04621215489582892	-1.198279778308748	3
5.619999999999925	0.09738725780418561	0.03417804278287803	-1.208054912608559	3
5.629999999999924	0.09766850924011727	0.02206084740175615	-1.214893113977081	3
5.639999999999924	0.09782829598053121	0.009890025868186521	-1.218778001906582	3
5.649999999999924	0.09786622961418781	-0.00230483625304562	-1.219700271714008	3
5.659999999999924	0.09778221793251625	-0.01449409581947576	-1.217657714616373	3
5.669999999999924	0.09757646515045303	-0.02664812310653585	-1.212655222493718	3
5.679999999999923	0.09724947141734192	-0.0387373727741943	-1.204704777339052	3
5.689999999999923	0.09680203161895019	-0.05073245465153476	-1.193825425396567	3
5.699999999999923	0.09623523347318733	-0.0626042041861725	-1.180043235991771	3
5.709999999999923	0.09555045492364302	-0.07432375240545927	-1.163391245060622	3
5.719999999999922	0.09474936083659166	-0.08586259523652323	-1.143909383390021	3
5.729999999999922	0.09383389900863895	-0.09719266203235029	-1.121644389589719	3
5.739999999999922	0.09280629549371315	-0.1082863831513637	-1.096649707826225	3
5.749999999999922	0.09166904925962741	-0.1191167564383323	-1.068985370363415	3
5.759999999999922	0.09042492618595832	-0.12965741245497	-1.038717864972339	3
